<svg width="40" height="40" viewBox="0 0 40 40" fill="none" xmlns="http://www.w3.org/2000/svg">
<path fill-rule="evenodd" clip-rule="evenodd" d="M15 2.5C15 1.83696 15.2634 1.20107 15.7322 0.732233C16.201 0.263392 16.8369 0 17.5 0L22.5 0C23.163 0 23.7989 0.263392 24.2677 0.732233C24.7366 1.20107 25 1.83696 25 2.5C25 3.16304 24.7366 3.79893 24.2677 4.26777C23.7989 4.73661 23.163 5 22.5 5V5.175C25.008 5.53419 27.4072 6.43689 29.53 7.82L31.8 5.55C31.9716 5.36578 32.1786 5.21803 32.4086 5.11555C32.6386 5.01307 32.8869 4.95796 33.1387 4.95352C33.3904 4.94908 33.6405 4.99539 33.874 5.08969C34.1074 5.184 34.3195 5.32436 34.4976 5.5024C34.6756 5.68045 34.816 5.89254 34.9103 6.12601C35.0046 6.35948 35.0509 6.60955 35.0464 6.86131C35.042 7.11306 34.9869 7.36135 34.8844 7.59135C34.7819 7.82134 34.6342 8.02835 34.45 8.2L32.45 10.2C35.2158 13.0011 36.9565 16.6529 37.3908 20.5653C37.825 24.4778 36.9275 28.4224 34.8432 31.7618C32.7589 35.1012 29.6096 37.6403 25.9041 38.969C22.1986 40.2976 18.1534 40.3381 14.422 39.0839C10.6907 37.8297 7.49113 35.3541 5.34041 32.0571C3.18968 28.7601 2.21338 24.8342 2.56923 20.9139C2.92509 16.9935 4.59233 13.3076 7.30156 10.4517C10.0108 7.59585 13.6038 5.73682 17.5 5.175V5C16.8369 5 16.201 4.73661 15.7322 4.26777C15.2634 3.79893 15 3.16304 15 2.5ZM33.75 22.5C33.75 26.1467 32.3013 29.6441 29.7227 32.2227C27.1441 34.8013 23.6467 36.25 20 36.25C16.3532 36.25 12.8559 34.8013 10.2773 32.2227C7.69863 29.6441 6.24997 26.1467 6.24997 22.5C6.24997 18.8533 7.69863 15.3559 10.2773 12.7773C12.8559 10.1987 16.3532 8.75 20 8.75C23.6467 8.75 27.1441 10.1987 29.7227 12.7773C32.3013 15.3559 33.75 18.8533 33.75 22.5ZM21.875 14.375C21.875 13.8777 21.6774 13.4008 21.3258 13.0492C20.9742 12.6975 20.4972 12.5 20 12.5C19.5027 12.5 19.0258 12.6975 18.6741 13.0492C18.3225 13.4008 18.125 13.8777 18.125 14.375V23.275L18.675 23.825L24.31 29.46C24.4816 29.6442 24.6886 29.792 24.9186 29.8945C25.1486 29.9969 25.3969 30.052 25.6487 30.0565C25.9004 30.0609 26.1505 30.0146 26.384 29.9203C26.6174 29.826 26.8295 29.6856 27.0076 29.5076C27.1856 29.3295 27.326 29.1175 27.4203 28.884C27.5146 28.6505 27.5609 28.4005 27.5564 28.1487C27.552 27.8969 27.4969 27.6487 27.3944 27.4187C27.2919 27.1887 27.1442 26.9817 26.96 26.81L21.875 21.7225V14.375Z" fill="#E55555"/>
</svg>
